HIERARCHY
ROOT Model_Hips
{
	OFFSET 0.000000 96.915077 0.000000
	CHANNELS 6 Xposition Yposition Zposition Xrotation Yrotation Zrotation
	JOINT Model_Spine
	{
		OFFSET 0.000000 11.137703 -1.289900
		CHANNELS 3 Xrotation Yrotation Zrotation
		JOINT Model_Spine1
		{
			OFFSET 0.000000 12.993942 -1.504922
			CHANNELS 3 Xrotation Yrotation Zrotation
			JOINT Model_Spine2
			{
				OFFSET 0.000000 14.850220 -1.719911
				CHANNELS 3 Xrotation Yrotation Zrotation
				JOINT Model_Neck
				{
					OFFSET 0.000000 16.706543 -1.934903
					CHANNELS 3 Xrotation Yrotation Zrotation
					JOINT Model_Head
					{
						OFFSET 0.000000 10.471298 2.002100
						CHANNELS 3 Xrotation Yrotation Zrotation
						JOINT Model_HeadTop_End
						{
							OFFSET 0.000000 20.842606 3.985100
							CHANNELS 3 Xrotation Yrotation Zrotation
							End Site
							{
								OFFSET 0.000000 21.220154 0.000000
							}
						}
					}
				}
				JOINT Model_LeftShoulder
				{
					OFFSET 7.008500 14.768600 -1.919946
					CHANNELS 3 Xrotation Yrotation Zrotation
					JOINT Model_LeftArm
					{
						OFFSET 14.126271 -3.718048 0.029937
						CHANNELS 3 Xrotation Yrotation Zrotation
						JOINT Model_LeftForeArm
						{
							OFFSET 28.282801 0.000000 0.000000
							CHANNELS 3 Xrotation Yrotation Zrotation
							JOINT Model_LeftHand
							{
								OFFSET 26.204689 0.000000 0.000000
								CHANNELS 3 Xrotation Yrotation Zrotation
								End Site
								{
									OFFSET 26.204704 0.000000 0.000000
								}
							}
						}
					}
				}
				JOINT Model_RightShoulder
				{
					OFFSET -7.008500 14.768555 -1.949840
					CHANNELS 3 Xrotation Yrotation Zrotation
					JOINT Model_RightArm
					{
						OFFSET -14.126281 -3.718018 -0.029932
						CHANNELS 3 Xrotation Yrotation Zrotation
						JOINT Model_RightForeArm
						{
							OFFSET -28.283798 0.000000 -0.000001
							CHANNELS 3 Xrotation Yrotation Zrotation
							JOINT Model_RightHand
							{
								OFFSET -26.204193 0.000000 -0.000001
								CHANNELS 3 Xrotation Yrotation Zrotation
								End Site
								{
									OFFSET -26.204208 0.000000 -0.000001
								}
							}
						}
					}
				}
			}
		}
	}
	JOINT Model_LeftUpLeg
	{
		OFFSET 8.327700 -6.193199 -0.402800
		CHANNELS 3 Xrotation Yrotation Zrotation
		JOINT Model_LeftLeg
		{
			OFFSET 0.735802 -42.108742 -0.610721
			CHANNELS 3 Xrotation Yrotation Zrotation
			JOINT Model_LeftFoot
			{
				OFFSET -0.735806 -36.833748 -0.172876
				CHANNELS 3 Xrotation Yrotation Zrotation
				JOINT Model_LeftToeBase
				{
					OFFSET -0.565857 -11.977769 16.297714
					CHANNELS 3 Xrotation Yrotation Zrotation
					JOINT Model_LeftToe_End
					{
						OFFSET -0.111712 -0.312793 7.857784
						CHANNELS 3 Xrotation Yrotation Zrotation
						End Site
						{
							OFFSET -0.111712 -0.312793 7.857784
						}
					}
				}
			}
		}
	}
	JOINT Model_RightUpLeg
	{
		OFFSET -8.327700 -6.193199 -0.516500
		CHANNELS 3 Xrotation Yrotation Zrotation
		JOINT Model_RightLeg
		{
			OFFSET -0.735785 -42.108738 -0.434061
			CHANNELS 3 Xrotation Yrotation Zrotation
			JOINT Model_RightFoot
			{
				OFFSET 0.735776 -36.833748 -0.021630
				CHANNELS 3 Xrotation Yrotation Zrotation
				JOINT Model_RightToeBase
				{
					OFFSET 0.565817 -11.977745 15.903093
					CHANNELS 3 Xrotation Yrotation Zrotation
					JOINT Model_RightToe_End
					{
						OFFSET 0.111702 -0.312791 7.811342
						CHANNELS 3 Xrotation Yrotation Zrotation
						End Site
						{
							OFFSET 0.111702 -0.312791 7.811342
						}
					}
				}
			}
		}
	}
}
MOTION
Frames: 14
Frame Time: 0.016667
0.970530 84.152061 0.875033 -1.504266 34.443886 6.114787 13.012952 11.239888 -6.682513 2.747268 3.205858 -2.286157 2.781670 3.170139 -2.305286 -4.636843 1.334446 2.947086 -4.636841 1.334443 2.947087 -0.000000 -0.000000 -0.000000 0.019244 1.247453 -5.846160 7.220833 -29.437521 -40.712015 0.000014 -68.298989 0.000020 -0.000000 0.000001 -0.000002 -2.009227 -13.351421 8.910679 29.197290 50.277132 26.935122 -0.000006 65.319872 0.000007 0.000000 -0.000002 0.000001 -25.474516 16.985738 -4.860457 64.732783 5.738649 10.444415 -37.934270 0.247118 -4.758462 -1.063546 0.000017 0.000001 -0.000000 0.000001 -0.000000 -33.969089 -7.971499 -15.246779 90.576266 6.694775 -4.687923 -0.490061 3.095155 23.624197 -36.096754 11.001431 -20.607695 0.000000 0.000000 0.000001 
0.742927 84.598343 3.974159 -1.472108 36.574577 5.190205 13.172603 9.501265 -5.708296 2.527740 2.728914 -2.006744 2.554002 2.693292 -2.034101 -4.698538 1.234784 3.260925 -4.698536 1.234794 3.260931 0.000001 0.000001 0.000001 0.494978 0.427342 -4.884010 4.483658 -29.496882 -40.491523 -0.000051 -68.213898 -0.000030 -0.000002 0.000002 -0.000001 -1.962221 -13.770852 9.888986 29.836312 48.800913 26.497850 -0.000004 66.683492 0.000027 0.000001 0.000000 -0.000001 -24.193872 14.955915 -3.006913 64.005491 6.017546 10.373243 -38.555605 0.333279 -6.276387 -1.650462 -0.000000 0.000007 0.000000 -0.000000 -0.000000 -36.830590 -7.791041 -15.378480 89.674838 4.754673 -4.914847 -3.402754 0.526970 22.789017 -33.661884 8.033163 -15.465085 0.000001 0.000000 0.000000 
0.527144 85.145775 7.095948 -1.428101 38.579910 4.282240 13.252743 7.770958 -4.796125 2.304378 2.248649 -1.709125 2.323459 2.214870 -1.741954 -4.684006 1.197766 3.519179 -4.684019 1.197763 3.519177 -0.000000 -0.000004 0.000000 0.840038 -0.140326 -3.962003 1.932920 -29.772030 -40.413287 0.000025 -68.223283 0.000036 -0.000003 0.000001 -0.000002 -1.915005 -14.073958 10.613500 30.204172 47.084858 26.607147 0.000021 68.163751 -0.000010 0.000003 0.000000 -0.000000 -22.812740 12.913696 -1.082644 62.879842 6.259651 10.289457 -38.590641 0.307424 -7.913810 -2.372251 -0.000009 -0.000002 0.000000 -0.000002 -0.000000 -39.269158 -7.762328 -15.447479 87.854674 3.007091 -5.315964 -5.931752 -1.511546 21.953575 -27.918668 5.762992 -12.134596 0.000001 0.000001 0.000000 
0.385956 85.947411 10.238395 -1.292062 40.113537 3.437757 13.047557 6.159164 -4.034241 2.100507 1.789760 -1.369418 2.112763 1.763238 -1.401270 -4.506587 1.321994 3.609180 -4.506589 1.322001 3.609179 0.000001 -0.000004 0.000001 0.872075 -0.212056 -3.193743 -0.289797 -30.649521 -40.829368 -0.000032 -68.415751 -0.000014 -0.000001 0.000001 0.000001 -1.904148 -14.053271 10.613886 30.061705 44.889926 28.020743 -0.000010 69.646251 0.000014 0.000001 -0.000004 0.000001 -20.997029 11.015499 0.801742 60.830812 6.389930 10.203919 -37.858676 0.048530 -9.647098 -3.513270 -0.000003 -0.000004 0.000000 0.000004 -0.000000 -40.705639 -7.905507 -15.382083 83.907112 1.807810 -6.040693 -7.602010 -2.247249 20.460573 -22.877128 3.949103 -9.461981 -0.000001 0.000001 -0.000000 
0.302872 86.975464 13.389071 -0.906140 41.069074 2.559952 12.549251 4.753763 -3.383902 1.943477 1.378100 -1.036071 1.950381 1.361592 -1.062012 -4.324332 1.566786 3.559112 -4.324327 1.566780 3.559108 0.000000 -0.000003 0.000001 0.701453 0.067663 -2.740180 -1.999991 -31.917805 -41.313922 0.000024 -68.824135 0.000047 -0.000002 -0.000001 -0.000002 -1.930128 -13.752492 9.946874 29.750846 42.801913 30.130171 0.000003 70.822751 -0.000005 -0.000001 -0.000002 0.000001 -18.884100 9.463409 2.604065 57.950720 6.059212 10.165309 -36.276012 0.023329 -11.186384 -5.219058 -0.000008 -0.000001 0.000001 -0.000002 0.000000 -41.413295 -8.114067 -15.072225 78.335187 0.936035 -6.998946 -8.726141 -2.229231 17.792523 -17.307527 1.919654 -6.136376 -0.000001 0.000001 -0.000000 
0.246805 88.129761 16.540909 -0.443439 41.726934 1.711920 11.985405 3.476773 -2.740893 1.790259 1.000751 -0.741937 1.794151 0.992369 -0.761706 -4.187526 1.838644 3.474851 -4.187536 1.838650 3.474851 0.000000 -0.000002 -0.000000 0.485116 0.473618 -2.592392 -3.317159 -32.872051 -41.607238 -0.000034 -69.727325 -0.000010 0.000001 0.000001 0.000002 -1.963196 -13.355831 9.041494 29.478065 41.048307 32.303738 -0.000033 71.796906 0.000045 -0.000000 0.000000 -0.000000 -16.635597 8.174364 4.258158 54.659757 5.751403 10.179768 -33.943066 0.045287 -12.419830 -7.447768 0.000005 -0.000005 0.000000 -0.000001 -0.000000 -41.515720 -8.473976 -14.613582 71.628105 0.144139 -8.106266 -9.456496 -2.000196 15.040959 -9.445051 0.432607 -2.598717 -0.000000 0.000003 -0.000001 
0.222534 89.335518 19.705435 -0.135501 42.145139 1.131124 11.552301 2.354927 -2.163879 1.637973 0.669641 -0.516830 1.640614 0.666255 -0.531066 -4.063240 2.101161 3.388732 -4.063230 2.101162 3.388733 -0.000000 -0.000001 0.000001 0.211559 1.011650 -2.677289 -4.352183 -33.586280 -41.787278 0.000042 -71.032943 0.000037 -0.000000 -0.000000 0.000001 -1.990721 -12.928357 8.077402 29.162418 39.496358 34.524339 0.000003 72.567345 0.000006 0.000002 0.000000 -0.000001 -14.279461 7.089572 5.666453 51.364382 5.763751 10.268202 -30.801947 -0.133297 -13.457391 -10.735308 -0.000017 -0.000005 0.000000 0.000001 0.000000 -40.871026 -8.801124 -14.180642 64.034041 -0.405281 -9.029908 -9.878410 -1.716155 12.435761 -0.000011 -0.000003 0.000005 0.000002 -0.000002 0.000001 
0.217581 90.481331 22.926743 -0.158423 42.416308 1.008371 11.367153 1.391740 -1.728848 1.492659 0.386774 -0.375443 1.494961 0.385620 -0.384717 -3.934932 2.330702 3.321606 -3.934913 2.330692 3.321622 0.000000 0.000003 -0.000001 -0.089640 1.620792 -2.906205 -5.144509 -34.072993 -41.908009 -0.000000 -72.634267 0.000020 -0.000001 0.000002 0.000001 -2.005172 -12.510831 7.183394 28.783527 38.003480 36.795674 0.000021 73.165253 -0.000007 0.000001 0.000002 -0.000003 -11.962827 6.089433 6.778715 48.582968 6.267623 10.489157 -26.883508 -0.572595 -14.312218 -15.146359 0.000023 0.000005 -0.000000 -0.000001 -0.000000 -39.545060 -9.263054 -13.903997 56.049352 -0.461700 -9.788815 -10.170134 -1.427148 9.962655 -0.000027 0.000000 0.000000 0.000001 -0.000000 -0.000000 
0.221672 91.493797 26.247744 -0.564083 42.648005 1.460364 11.456653 0.534923 -1.529965 1.359530 0.144870 -0.322249 1.361895 0.143858 -0.326704 -3.796817 2.519071 3.277896 -3.796804 2.519074 3.277896 0.000001 -0.000000 -0.000000 -0.399116 2.260131 -3.216700 -5.616482 -34.340931 -41.933390 0.000000 -74.488056 0.000010 -0.000000 0.000000 -0.000002 -2.003746 -12.116758 6.420107 28.385510 36.527664 39.062183 -0.000015 73.593950 0.000022 0.000000 -0.000002 0.000001 -9.808330 5.077754 7.501365 46.602067 7.385896 10.844915 -22.271797 -1.237213 -14.756846 -19.200842 0.000003 0.000007 0.000001 0.000003 -0.000000 -37.506437 -9.152811 -13.826464 48.266082 -0.584960 -9.775206 -10.504473 -1.126109 7.604955 -0.000012 -0.000009 -0.000003 0.000000 0.000001 0.000000 
0.238818 92.392433 29.670155 -1.284063 42.906244 2.347562 11.732633 -0.238718 -1.521120 1.247228 -0.064702 -0.335165 1.249817 -0.066870 -0.334605 -3.648355 2.670869 3.245363 -3.648358 2.670854 3.245368 0.000001 0.000002 -0.000001 -0.710752 2.917289 -3.595848 -5.665070 -34.463488 -41.771477 -0.000007 -76.481870 0.000015 0.000003 0.000001 0.000001 -1.987364 -11.736339 5.775490 28.020170 35.104932 41.254643 -0.000021 73.841387 0.000027 -0.000000 0.000002 -0.000001 -7.893438 3.992153 7.914957 45.351609 9.016202 11.215326 -16.960138 -1.909706 -14.347617 -21.169236 0.000010 -0.000004 0.000000 -0.000002 -0.000001 -34.833254 -8.418395 -13.890002 40.988628 -1.248390 -8.995966 -10.753497 -0.814303 5.414612 -0.000002 0.000001 0.000001 0.000001 -0.000001 -0.000001 
0.264371 93.123947 33.206127 -2.205768 43.222837 3.472712 12.071422 -0.933240 -1.633901 1.169097 -0.245763 -0.374473 1.171976 -0.249263 -0.368799 -3.497925 2.794192 3.205989 -3.497915 2.794194 3.205994 -0.000000 0.000001 0.000000 -1.018380 3.582387 -4.039373 -5.312481 -34.566341 -41.385551 -0.000068 -78.384392 -0.000039 -0.000003 0.000001 0.000000 -1.958982 -11.352122 5.196106 27.706871 33.782911 43.312378 0.000037 73.921539 -0.000018 0.000002 -0.000002 0.000000 -6.349574 2.855247 8.194526 44.862230 10.897501 11.461618 -11.090789 -2.426709 -12.648050 -23.684594 0.074560 -1.845899 -0.000000 0.000001 -0.000001 -32.106008 -8.202608 -14.045347 34.773395 -1.965442 -8.363333 -10.811315 -0.547518 3.475111 -0.000013 0.000018 0.000007 0.000000 -0.000003 0.000000 
0.289702 93.648163 36.823238 -3.259005 43.603832 4.629572 12.446140 -1.513706 -1.706564 1.125901 -0.396045 -0.420279 1.128996 -0.400912 -0.409648 -3.367896 2.892110 3.149011 -3.367921 2.892092 3.149002 0.000001 0.000001 0.000001 -1.300345 4.210766 -4.507846 -4.740187 -34.712251 -40.859155 0.000044 -80.016513 0.000057 0.000001 0.000001 0.000000 -1.922611 -10.959255 4.634449 27.432207 32.590446 45.180837 -0.000003 73.864179 0.000013 0.000001 -0.000001 -0.000001 -5.164288 1.694171 8.504004 44.952190 12.597915 11.443986 -4.926357 -2.731814 -9.430986 -26.709559 0.629368 -5.269267 -0.000000 -0.000004 -0.000000 -29.703222 -9.022901 -14.133724 30.083848 -2.346630 -8.111412 -10.507721 -0.339889 1.900430 -0.000002 -0.000011 0.000001 -0.000001 0.000002 0.000000 
0.295857 93.891167 40.465393 -4.412378 44.032597 5.668126 12.899278 -1.923602 -1.592353 1.114576 -0.505401 -0.473769 1.117537 -0.512120 -0.458721 -3.288405 2.959002 3.081395 -3.288406 2.959000 3.081395 0.000001 0.000000 0.000001 -1.522483 4.716059 -4.914669 -4.176604 -34.843032 -40.333094 -0.000046 -81.419974 -0.000036 0.000003 0.000002 -0.000000 -1.883766 -10.584599 4.098811 27.194883 31.540898 46.767466 0.000000 73.761125 0.000020 -0.000003 0.000000 -0.000002 -4.288381 0.710678 9.009225 45.572651 12.824856 11.103847 0.761674 -2.269947 -5.084562 -28.642554 2.200643 -9.693019 0.000000 -0.000003 -0.000001 -28.151731 -10.465959 -14.198956 27.720536 -2.180123 -8.354868 -8.558384 -0.343599 3.067626 -0.000018 0.000002 -0.000000 -0.000001 -0.000002 0.000000 
0.251114 93.780266 44.078407 -5.512512 44.403357 6.558242 13.393501 -2.077427 -1.382579 1.126335 -0.552574 -0.553852 1.128531 -0.562519 -0.535851 -3.278191 2.983628 3.027857 -3.278189 2.983634 3.027859 0.000001 -0.000003 0.000000 -1.652645 4.997376 -5.150542 -3.759307 -34.836902 -39.932322 -0.000054 -82.743569 0.000036 -0.000004 0.000002 -0.000001 -1.850154 -10.290869 3.677167 27.032711 30.660101 47.936942 0.000027 73.710712 -0.000009 -0.000002 -0.000003 0.000003 -3.835946 0.187867 9.668187 46.915644 10.614939 10.588995 5.074632 -0.708503 -0.822486 -29.230952 5.185117 -14.665547 -0.000002 0.000001 0.000000 -27.046953 -12.200829 -13.805469 27.110903 -1.821362 -9.020121 -6.233341 -0.378633 4.933784 0.000141 -0.000010 0.000003 0.000001 0.000003 -0.000000 
